<svg width="137" height="39" viewBox="0 0 137 39" fill="none" xmlns="http://www.w3.org/2000/svg">
<path d="M9.82609 28.4286V14.8571L17 10.5714V28.4286L24.1739 24.1429V5.57143L17 2L2 11.2857V24.1429L9.82609 28.4286ZM9.82609 28.4286V33.4286L17 37L32 27.7143V15.5714L24.1739 10.5714M9.82609 28.4286V24.1429" stroke="#F15A24" stroke-width="3"/>
<path d="M73.2785 14V22.75C73.2785 24.6829 74.8426 26.2499 76.7721 26.2499H80.2658C82.1953 26.2499 83.7595 24.6829 83.7595 22.75V14M43 28V19.25C43 17.317 44.5642 15.75 46.4937 15.75H49.9873C51.9168 15.75 53.481 17.317 53.481 19.25V28M88.4177 14L91.1151 23.8265C92.0796 27.3402 97.0937 27.222 97.8922 23.6667L100.063 14M119.861 14V27.9999M58.1392 22.2254V19.7745C58.1392 18.3914 58.9523 17.138 60.214 16.5762L61.9608 15.7984C62.8642 15.3962 63.8953 15.3962 64.7987 15.7984L66.5455 16.5762C67.8072 17.138 68.6203 18.3914 68.6203 19.7745V22.2254C68.6203 23.6086 67.8072 24.862 66.5455 25.4237L64.7987 26.2015C63.8953 26.6037 62.8642 26.6037 61.9608 26.2015L60.214 25.4237C58.9523 24.862 58.1392 23.6086 58.1392 22.2254ZM104.722 22.2254V19.7745C104.722 18.3914 105.535 17.138 106.796 16.5762L108.543 15.7984C109.446 15.3962 110.478 15.3962 111.381 15.7984L113.128 16.5762C114.389 17.138 115.203 18.3914 115.203 19.7745V22.2254C115.203 23.6086 114.389 24.862 113.128 25.4237L111.381 26.2015C110.478 26.6037 109.446 26.6037 108.543 26.2015L106.796 25.4237C105.535 24.862 104.722 23.6086 104.722 22.2254ZM124.519 22.2254V19.7745C124.519 18.3914 125.332 17.138 126.594 16.5762L128.341 15.7984C129.244 15.3962 130.275 15.3962 131.178 15.7984L132.925 16.5762C134.187 17.138 135 18.3914 135 19.7745V22.2254C135 23.6086 134.187 24.862 132.925 25.4237L131.178 26.2015C130.275 26.6037 129.244 26.6037 128.341 26.2015L126.594 25.4237C125.332 24.862 124.519 23.6086 124.519 22.2254Z" stroke="white" stroke-width="3"/>
</svg>
