<svg width="60" height="60" viewBox="0 0 60 60" fill="none" xmlns="http://www.w3.org/2000/svg">
<path d="M60 30C60 46.5685 46.5685 60 30 60C13.4315 60 0 46.5685 0 30C0 13.4315 13.4315 0 30 0C46.5685 0 60 13.4315 60 30Z" fill="#F15A24"/>
<path fill-rule="evenodd" clip-rule="evenodd" d="M12.4138 26.765C12.4138 14.9468 14.8601 12.4138 26.2738 12.4138H34.5538C45.9676 12.4138 48.4138 14.9468 48.4138 26.765C48.4138 38.5834 45.9676 42.1162 34.5538 42.1162H32.9047C32.8213 42.2176 32.7247 42.3136 32.6146 42.4024L26.0424 47.9938C24.8017 48.9943 22.9549 48.1078 22.9549 46.5139V42.0238C14.3714 41.479 12.4138 37.3372 12.4138 26.765ZM30.4138 29.4139C31.5184 29.4139 32.4139 28.5184 32.4139 27.4138C32.4139 26.3092 31.5184 25.4138 30.4138 25.4138C29.3092 25.4138 28.4138 26.3092 28.4138 27.4138C28.4138 28.5184 29.3092 29.4139 30.4138 29.4139ZM40.4137 27.4138C40.4137 28.5184 39.5185 29.4139 38.4139 29.4139C37.3093 29.4139 36.4138 28.5184 36.4138 27.4138C36.4138 26.3092 37.3093 25.4138 38.4139 25.4138C39.5185 25.4138 40.4137 26.3092 40.4137 27.4138ZM22.4138 29.4139C23.5184 29.4139 24.4138 28.5184 24.4138 27.4138C24.4138 26.3092 23.5184 25.4138 22.4138 25.4138C21.3092 25.4138 20.4138 26.3092 20.4138 27.4138C20.4138 28.5184 21.3092 29.4139 22.4138 29.4139Z" fill="white"/>
</svg>
