<svg width="29" height="29" viewBox="0 0 29 29" fill="none" xmlns="http://www.w3.org/2000/svg">
<path d="M27 14.5C27 21.4036 21.4036 27 14.5 27C7.59644 27 2 21.4036 2 14.5M27 14.5C27 7.59644 21.4036 2 14.5 2M27 14.5H2M2 14.5C2 7.59644 7.59644 2 14.5 2M14.5 2C10.9466 4.58999 8.57842 9.21907 8.57842 14.4988C8.57842 19.7784 10.9466 24.41 14.5037 27C18.0609 24.41 20.4291 19.7809 20.4291 14.4988C20.4291 9.21657 18.0572 4.58999 14.5 2Z" stroke="white" stroke-width="2.62" stroke-linecap="round" stroke-linejoin="round"/>
</svg>
